<svg width="14" height="14" fill="none" xmlns="http://www.w3.org/2000/svg"><path d="M12.148 8.146a.565.565 0 0 0-.566.566v3.436a.722.722 0 0 1-.721.72H1.852a.722.722 0 0 1-.72-.72V3.139c0-.397.323-.721.72-.721h3.436a.566.566 0 0 0 0-1.131H1.852A1.855 1.855 0 0 0 0 3.139v9.009C0 13.169.831 14 1.852 14h9.009a1.855 1.855 0 0 0 1.852-1.852V8.712a.566.566 0 0 0-.565-.566z" fill="#8FA4B5"/><path d="M13.835 2.74L11.26.165a.566.566 0 0 0-.8 0L4.026 6.6a.566.566 0 0 0-.165.4v2.574c0 .312.253.565.565.565H7c.15 0 .294-.06.4-.165l6.434-6.435a.565.565 0 0 0 0-.8zm-7.07 6.268H4.993V7.234l5.869-5.869 1.774 1.774-5.87 5.87z" fill="#8FA4B5"/></svg>