<svg width="24" height="24" viewBox="0 0 24 24" fill="none" xmlns="http://www.w3.org/2000/svg">
  <path
    d="M18.6533 10.3562C18.2964 10.3562 18.007 10.6456 18.007 11.0025V11.6535C18.006 13.3515 17.3439 14.9476 16.1425 16.1476C14.9419 17.3467 13.3466 18.007 11.6499 18.007C11.6487 18.007 11.6474 18.007 11.6462 18.007C8.14081 18.005 5.29062 15.1515 5.29262 11.6461C5.29359 9.94812 5.95578 8.35206 7.15722 7.152C8.35775 5.95287 9.95309 5.29262 11.6497 5.29262C11.651 5.29262 11.6522 5.29262 11.6535 5.29262C12.5495 5.29312 13.4188 5.47831 14.2372 5.84297C14.5634 5.98828 14.9453 5.84169 15.0906 5.51565C15.2359 5.18962 15.0894 4.80756 14.7633 4.66225C13.7785 4.22341 12.7324 4.00059 11.6542 4C11.6526 4 11.6513 4 11.6497 4C9.60818 4 7.68825 4.79462 6.24369 6.2375C4.798 7.6815 4.00119 9.60209 4 11.6455C3.99885 13.6888 4.79341 15.6103 6.23747 17.056C7.68153 18.5016 9.60209 19.2985 11.6454 19.2996C11.647 19.2996 11.6483 19.2996 11.6499 19.2996C13.6915 19.2996 15.6114 18.505 17.056 17.0621C18.5016 15.6181 19.2985 13.6975 19.2996 11.6538V11.0025C19.2996 10.6456 19.0103 10.3562 18.6533 10.3562Z"
    fill="#8FA4B5"
  />
  <path
    d="M18.9384 5.99576L18.9384 5.99577C19.0994 6.15681 19.0994 6.4179 18.9384 6.57894L15.5131 10.0042L15.4247 9.91583L15.5131 10.0042C15.4326 10.0847 15.3269 10.125 15.2215 10.125C15.1162 10.125 15.0105 10.0847 14.93 10.0042C14.9299 10.0042 14.9299 10.0042 14.9299 10.0042L13.9958 9.07004C13.8347 8.90901 13.8347 8.64792 13.9958 8.48688L18.9384 5.99576ZM18.9384 5.99576C18.7773 5.83475 18.5163 5.83475 18.3552 5.99576L18.3552 5.99577L15.2215 9.12945L18.9384 5.99576Z"
    fill="#2CC68F"
    stroke="#2CC68F"
    stroke-width="0.25"
  />
  <path
    d="M14.3094 13.8076L12.2926 11.7908V7.64631C12.2926 7.28938 12.0033 7 11.6463 7C11.2894 7 11 7.28938 11 7.64631V12.0585C11 12.23 11.0681 12.3944 11.1893 12.5156L13.3954 14.7217C13.5216 14.8479 13.687 14.911 13.8524 14.911C14.0178 14.911 14.1832 14.8479 14.3095 14.7217C14.5618 14.4692 14.5618 14.06 14.3094 13.8076Z"
    fill="#8FA4B5"
  />
</svg>
