<svg width="24" height="18" fill="none" xmlns="http://www.w3.org/2000/svg"><path d="M23.38 5.295H9.26a.62.62 0 0 0 0 1.24h14.12a.62.62 0 1 0 0-1.24z" fill="#99A0A2"/><path d="M23.818 5.476L18.524.182a.62.62 0 0 0-.878.877l4.856 4.856-4.856 4.856a.62.62 0 0 0 .878.877l5.294-5.294a.62.62 0 0 0 0-.878zM.62 11.816h14.12a.62.62 0 1 0 0-1.241H.62a.62.62 0 1 0 0 1.24z" fill="#99A0A2"/><path d="M.182 11.634l5.294 5.295a.62.62 0 0 0 .878-.878l-4.856-4.856L6.354 6.34a.62.62 0 0 0-.878-.877L.182 10.757a.62.62 0 0 0 0 .877z" fill="#99A0A2"/></svg>